<svg id="SvgjsSvg1084" xmlns="http://www.w3.org/2000/svg" version="1.1" xmlns:xlink="http://www.w3.org/1999/xlink" xmlns:svgjs="http://svgjs.com/svgjs" viewBox="-7.62 -7.62 150.81 126.44"><defs id="SvgjsDefs1085"></defs><g id="SvgjsG1086"><svg xmlns="http://www.w3.org/2000/svg" xmlns:svgjs="http://svgjs.com/svgjs" xmlns:xlink="http://www.w3.org/1999/xlink" viewBox="27.5 27.5 495 495" width="288" height="288"><svg xmlns="http://www.w3.org/2000/svg" xmlns:xlink="http://www.w3.org/1999/xlink" data-name="Layer 1" viewBox="0 0 2000 2000" width="288" height="288"><defs><linearGradient id="b" x1="-432.284" x2="-432.284" y1="1118.362" y2="1618.684" gradientTransform="matrix(-1 0 0 1 567.716 0)" gradientUnits="userSpaceOnUse"><stop class="stopColore5e5e5 svgShape" offset="0" stop-color="#9273fd"></stop><stop class="stopColorf4f4f4 svgShape" offset=".476" stop-color="#6148d6"></stop><stop class="stopColorfff svgShape" offset="1" stop-color="#260e92"></stop></linearGradient><linearGradient id="a" x1="945.988" x2="984.208" y1="1634.6" y2="1593.44" gradientTransform="rotate(-1.851 -1336.664 1015.997)" gradientUnits="userSpaceOnUse"><stop class="stopColor4e9cff svgShape" offset="0" stop-color="#845ef7"></stop><stop class="stopColor176ad4 svgShape" offset=".984" stop-color="#3730a3"></stop></linearGradient><linearGradient id="c" x1="962.973" x2="1012.002" y1="1565.772" y2="1481.139" gradientTransform="rotate(-1.851 -1336.664 1015.997)" gradientUnits="userSpaceOnUse"><stop class="stopColor1d0633 svgShape" offset="0" stop-color="#1d0633"></stop><stop class="stopColor192b59 svgShape" offset="1" stop-color="#3730a3"></stop></linearGradient><linearGradient id="d" x1="1007.222" x2="1029.706" y1="1133.131" y2="1383.205" xlink:href="#a"></linearGradient><linearGradient id="e" x1="1008.169" x2="1014.439" y1="1113.765" y2="1183.501" gradientTransform="rotate(-1.851 -1336.664 1015.997)" gradientUnits="userSpaceOnUse"><stop class="stopColorf2bfad svgShape" offset="0" stop-color="#ebe6ff"></stop><stop class="stopColorf2dad4 svgShape" offset="1" stop-color="#f2dad4"></stop></linearGradient><linearGradient id="f" x1="1021.483" x2="1032.498" y1="1561.061" y2="1683.579" xlink:href="#a"></linearGradient></defs><path fill="#845ef7" d="M626.86133 231.93579a88.57849 88.57849 0 00-62.83106-26.02551h-88.3479a134.65421 134.65421 0 00-263.10107 0H188.85669A88.82684 88.82684 0 00100 294.76709v.00012A88.85665 88.85665 0 00188.85669 383.624H564.03027A88.855 88.855 0 00652.887 294.76721v-.00012A88.57789 88.57789 0 00626.86133 231.93579zM1509.48666 376.30369a65.655 65.655 0 0146.57082-19.29029h65.48409a99.80666 99.80666 0 01195.01238 0h17.58484A65.83909 65.83909 0 011900 422.87469v.00009a65.86117 65.86117 0 01-65.86121 65.8613H1556.05748a65.85993 65.85993 0 01-65.8612-65.8613v-.00009A65.65455 65.65455 0 011509.48666 376.30369zM633.6984 959.79937c12.10463 17.11989 2.11833 39.39942-9.93078 51.93212-14.81519 15.41024-29.86905 13.03022-36.72662 26.65692-8.28614 16.46588 9.35067 28.57455.15326 45.791-5.6505 10.57772-13.40438 8.05858-24.64157 21.48679-13.68889 16.35765-.26815 21.01066-9.97721 32.978-31.19627 38.453-43.69161 11.77954-62.6845 21.88841-24.61876 13.10352-41.08686 24.29528-53.1398 21.67417-47.36592-10.30109-32.77627-41.44546-55.768-53.44651-31.07248-16.21812-46.25234-82.59551-24.92385-105.98721 11.16732-12.24759 22.20643-13.73431 23.2449-23.93748 1.49844-14.7215-20.735-19.00137-22.99149-36.71288-2.55791-20.08447 24.09175-29.8115 20.12465-46.77733-3.86776-16.541-31.22252-15.94606-32.97658-27.75927-2.65968-17.91706 55.71446-50.0017 116.17038-48.009 28.91054.95326 76.00064 10.28292 83.83711 34.37263 4.5248 13.91105-7.24707 22.88474-.61262 40.85386 4.82343 13.06556 15.49606 20.37361 29.63078 29.78626C585.91066 953.529 612.28228 929.51215 633.6984 959.79937z" class="coloreee svgShape"></path><path fill="#4c1ac5" d="M489.22323,949.01993c9.51018-.47774,14.35946,62.943,8.84425,71.25918-5.516,8.31684-15.88758,14.45457-16.5731,23.53324-.68511,9.07868,3.36377,169.9337,6.72128,167.60639,3.35791-2.32752,31.20958-44.48111,25.64854-54.29659-5.561-9.81568-11.86173-24.98887-10.55773-37.82183,1.3052-12.83335,1.3153-31.10822,4.90965-30.66077,3.595.44685.57951,31.92741,3.08068,38.03021,2.502,6.1036,2.93,10.87817,6.51834,10.98357,3.58851.10581,3.66806-33.1999,9.1441-32.61635,5.47564.58375,1.75427,49.6686-.13044,58.75475-1.88451,9.08635-8.31865,40.45747-14.25789,52.00864-5.939,11.55057-23.994,23.66267-24.435,27.59908-.44119,3.9358,2.45129,97.61485,2.45129,97.61485l-47.29868.85775s17.46961-184.70851,13.573-190.85633c-3.89683-6.14782-28.57434-56.05025-33.85936-61.14729-5.28563-5.09663-8.44526-36.19678-5.65757-36.64686,2.78769-.44987,4.33621,29.88056,10.13754,30.37445,5.80072.49349,8.92239-58.68166,13.12614-58.15848,4.20395.52317-4.08,61.38979-1.81525,65.14366,2.26533,3.75347,15.45608,26.283,19.84115,25.80422,4.38527-.47875-2.41192-166.12813,1.34862-167.99346,3.76094-1.86593,6.585-.319,8.89654,17.0153,2.31157,17.33373,6.793,55.20017,9.38842,55.15373,2.59547-.04745,9.08312-5.75711,9.21416-9.55419C487.61313,1007.20971,484.992,949.23215,489.22323,949.01993Z" class="colorbdbdbd svgShape"></path><path fill="#845ef7" d="M1514.23826,1137.12572c-6.85332,9.69271-1.199,22.30638,5.62284,29.40221,8.38771,8.72532,16.9103,7.37771,20.7932,15.09243,4.69138,9.32279-5.29391,16.17794-.08723,25.92537,3.19961,5.98932,7.58972,4.56276,13.95158,12.16561,7.75066,9.261.152,11.89524,5.64868,18.67083,17.66285,21.7713,24.73708,6.66918,35.49047,12.39257,13.93866,7.41951,23.26247,13.75552,30.08632,12.27142,26.817-5.83223,18.55735-23.46479,31.57445-30.25977,17.592-9.18266,26.18666-46.76359,14.1107-60.007-6.32249-6.9343-12.57228-7.77569-13.16027-13.55239-.84886-8.33481,11.73977-10.75824,13.01711-20.78573,1.448-11.37146-13.64043-16.8786-11.39428-26.48408,2.18981-9.3652,17.67779-9.0288,18.67022-15.71635,1.50632-10.14441-31.54376-28.30943-65.77184-27.18151-16.36835.53953-43.02951,5.82192-47.46607,19.46074-2.562,7.876,4.10279,12.95652.34669,23.13061-2.73075,7.39689-8.77337,11.53441-16.776,16.86366C1541.29418,1133.57558,1526.36309,1119.97776,1514.23826,1137.12572Z" class="coloreee svgShape"></path><path fill="#4c1ac5" d="M1596.03559,1131.02252c-5.38356-.27057-8.12965,35.63646-5.007,40.3448,3.12328,4.70895,8.99528,8.184,9.38337,13.324.38748,5.14025-1.9045,96.21151-3.806,94.89419-1.90106-1.31812-17.66971-25.18413-14.521-30.74134,3.14812-5.55741,6.71542-14.14805,5.977-21.4141-.73882-7.265-.74387-17.61237-2.77921-17.35916-2.03575.25341-.32792,18.07678-1.74438,21.532-1.41646,3.45544-1.659,6.15852-3.69027,6.21849-2.03211.05977-2.07673-18.79662-5.177-18.46649-3.10046.33055-.99384,28.12124.0735,33.26513,1.06714,5.14449,4.70976,22.90628,8.07231,29.446,3.36276,6.53974,13.5849,13.39671,13.83447,15.62549s-1.38778,55.267-1.38778,55.267l26.77928.48522s-9.89119-104.57641-7.68462-108.05668c2.20576-3.48108,16.17773-31.73417,19.17037-34.62,2.99224-2.88562,4.78124-20.49355,3.203-20.74837-1.5788-.25482-2.45553,16.91737-5.73974,17.19682-3.284.27946-5.05161-33.22352-7.43163-32.92731-2.37981.29622,2.30975,34.7567,1.02757,36.8823-1.28259,2.12479-8.75036,14.88081-11.23356,14.60943-2.48239-.27138,1.36578-94.05643-.76305-95.11266-2.12963-1.05685-3.72843-.18092-5.03727,9.63314-1.30843,9.81407-3.84594,31.2528-5.31551,31.22655-1.46977-.02645-5.14267-3.25937-5.21657-5.409C1596.94806,1163.968,1598.43136,1131.14307,1596.03559,1131.02252Z" class="colorbdbdbd svgShape"></path><path fill="#4727bf" d="M916.35366,307.7771V585.43858a87.59655,87.59655,0,0,0-51.70509-16.36813c-44.31647,0-80.24193,31.11627-80.24193,69.50041,0,38.38456,35.92546,69.50166,80.24193,69.50166,44.31688,0,80.24235-31.1171,80.24235-69.50166v-230.952L1185.016,344.9285v174.312a87.59584,87.59584,0,0,0-51.70509-16.36856c-44.31647,0-80.24193,31.1167-80.24193,69.50084,0,38.38435,35.92546,69.50082,80.24193,69.50082,44.31688,0,80.24235-31.11647,80.24235-69.50082,0-1.42079-.0642-2.828-.16184-4.2275h.16184V234.17119Z" class="color192b59 svgShape"></path><rect width="264.227" height="27.708" x="880.485" y="1334.42" fill="#845ef7" class="colore64d4e svgShape"></rect><path fill="url(#a)" d="M995.03093,1497.64917c-5.22885,3.91766-13.99554,11.05693-18.61317,13.991-4.618,2.93427-10.58216,7.30482-10.66761,17.91175-.08546,10.60672,15.28628,28.85411,25.77286,28.515,10.486-.33977,25.49235-18.47486,28.43632-26.06578,2.944-7.59071,16.02609-32.09574,3.69658-38.55465C1011.3264,1486.98733,995.03093,1497.64917,995.03093,1497.64917Z"></path><path fill="url(#c)" d="M1100.7524,1293.17973c.64631,5.32338,10.33755,17.64195,8.00314,31.13485-2.33441,13.49352-21.22954,88.199-34.56969,113.14065s-22.176,45.36695-36.18143,49.13227c-14.005,3.7649-21.91321-24.715-22.18238-27.80529-.26918-3.08991,23.33978-48.36644,24.63652-60.52235,1.29735-12.15633,11.86279-50.81274,5.70175-54.27565-6.16124-3.46333-5.742-5.66006-11.98025-4.49977-6.238,1.16009-19.79554-27.59907-19.79554-27.59907s21.26134-61.57221,36.68448-62.76243C1079.80854,1246.90515,1099.96016,1286.65787,1100.7524,1293.17973Z"></path><polygon fill="#f2dad4" points="1017.208 1501.644 1022.824 1516.434 1043.219 1511.664 1051.192 1499.517 1038.004 1486.587 1017.208 1501.644" class="colorf2dad4 svgShape"></polygon><path fill="#4727bf" d="M913.90035,1308.92881a35.77615,35.77615,0,0,0-5.95235,34.64008c3.53661,9.35705,61.54641,124.37283,73.28742,137.39178,11.74038,13.01875,20.639,38.14222,24.55457,37.7847,3.9158-.35793,4.23472-11.91873,16.77024-17.17544,12.53572-5.25733,20.92487-10.14868,20.81258-13.61036-.11188-3.46146-38.8585-72.8981-46.63127-84.65933-7.77319-11.761-30.33972-45.221-26.484-47.425,3.85594-2.20375,22.24968-12.0397,31.23517-12.7921,8.98488-.75261,30.41692-2.36992,32.68734-3.59874,2.27022-1.22841,48.42548-74.10484,47.05526-80.75984-1.37084-6.65521-42.08485-22.66438-71.28843-18.485C980.7431,1244.4184,922.56342,1298.22321,913.90035,1308.92881Z" class="color192b59 svgShape"></path><path fill="url(#d)" d="M992.7892,1067.87934c-17.25,6.59-62.035,19.2316-67.17282,23.62176-5.13781,4.38974-24.09921,58.01186-28.9309,58.80183-4.83148.78956-28.41815,15.91339-28.02884,27.93864.3889,12.025,13.472,44.33607,25.6742,42.88494,12.20174-1.45011,25.12264-15.86034,26.29511-9.72015,6.91056,36.1806-11.2458,83.8029-8.06217,99.28032,1.22345,5.94926,56.85075-45.06412,106.17705-46.03615,49.82274-.98236,84.20789,38.60872,85.65676,32.46255,6.49131-27.53653-12.44552-63.23245,13.25551-114.49085,0,0,19.9549,20.63691,34.29289,21.8358,14.33839,1.19889,28.20285-22.52793,27.89095-32.16117-.31129-9.63345-7.72943-33.33654-19.68841-32.94991-11.95878.387-16.05933,7.26126-19.13149,4.82157-3.07134-2.4403-22.23647-50.03907-33.73514-55.98522-11.49866-5.94637-47.6419-13.008-52.05291-15.73277-4.41162-2.72517-24.994-9.04268-34.54843-7.40349C1011.12617,1066.68643,992.7892,1067.87934,992.7892,1067.87934Z"></path><path fill="url(#e)" d="M991.97053,1042.5703c.51585,7.20181,3.46416,23.94976.81867,25.309-2.64508,1.35907-10.62592,5.81611-12.14353,11.11266-1.453,5.07134,3.43237,28.92925,38.25761,27.88269,36.02083-1.08247,32.58186-27.16517,30.33745-30.91439-2.244-3.7486-7.19273-3.58842-7.672-9.659-.47952-6.071.88224-25.22213.8455-26.35332C1042.37806,1038.81654,991.97053,1042.5703,991.97053,1042.5703Z"></path><path fill="#845ef7" d="M979.963,1023.72842c-1.98164-10.72583-5.83882-33.327-5.06185-38.28568,1.29013-8.23557,12.78921-26.0505,34.51-26.75316,21.721-.70265,33.84928,10.34891,38.99762,22.93376,5.14834,12.58547,4.41885,40.56477,4.41885,40.56477s-24.26847,15.66238-35.67177,15.5408C1005.752,1037.60753,979.963,1023.72842,979.963,1023.72842Z" class="colore64d4e svgShape"></path><path fill="#f2dad4" d="M976.75629,1018.38274c-3.4014,3.261,6.384,20.98267,8.01656,21.06586,1.63237.08277,3.10353-.644,4.40337,1.7587,1.30024,2.40315,12.1751,27.48162,29.73016,26.93729,18.80224-.58314,27.28035-28.10212,28.40493-31.1268,1.12479-3.0253,3.13-.43617,4.35982-2.03159,1.22923-1.59543,4.47293-10.85753,4.44506-16.125-.02807-5.26745-1.06967-6.65769-3.47406-6.15258-2.40418.50491-2.064,4.40935-3.27549,4.378-1.21127-.0322.0737-12.09275-1.39086-19.40706-1.43586-7.17085-8.0341-15.40724-32.55069-13.43717-24.516,1.96988-31.96239,3.18281-32.13166,16.13406,0,0,.66034,20.485-.99639,20.04572C980.64031,1019.98312,979.46226,1015.78824,976.75629,1018.38274Z" class="colorf2dad4 svgShape"></path><path fill="url(#f)" d="M1041.40768,1488.5906c2.8614-2.22129,13.606,5.1599,16.56237,7.11739,2.95657,1.95749,8.85484,5.40616,12.61685,6.31131a7.77714,7.77714,0,0,1,5.55,9.99324c-1.51534,5.08869-11.09243,26.39709-11.606,30.70674-.514,4.30965,2.63063,20.72733-2.21985,29.47028-4.84965,8.74315-23.44526,36.87685-33.43,36.91938-9.98457.04314-11.1298-23.81146-9.54841-29.74255a46.50983,46.50983,0,0,0,.70183-18.68851c-.94437-6.12883-2.48778-18.93249-6.65459-26.63219-4.16639-7.70012-9.84792-15.65268-5.53187-21.96977,4.31523-6.31689,10.47008-8.58669,14.28927-8.09686,3.819.48984,5.29449,5.02284,6.99478,3.838a94.41181,94.41181,0,0,1,8.93058-6.025C1041.73383,1499.76127,1039.64216,1489.96124,1041.40768,1488.5906Z"></path><path fill="#845ef7" d="M899.95168 1353.48575l-.05491-.00041a2.94649 2.94649 0 01-2.89175-2.99991l13.32756-770.575a2.94643 2.94643 0 015.89186.10878l-13.328 770.57542A2.94573 2.94573 0 01899.95168 1353.48575zM1124.77214 1353.48575l-.0547-.00041a2.94652 2.94652 0 01-2.892-2.99991l13.32777-848.55456a2.94621 2.94621 0 012.945-2.89134l.05532.00021a2.94656 2.94656 0 012.89134 3.00053l-13.32756 848.55436A2.94636 2.94636 0 011124.77214 1353.48575z" class="colore64d4e svgShape"></path><path fill="#f2dad4" d="M875.38534 1134.21409c.74724 6.27849-3.20819 20.15389-3.7808 25.641a61.47809 61.47809 0 002.50409 24.36549c3.10353 9.76391 8.31421 15.06376 15.103 9.48277 6.78876-5.5808 9.61776-10.92606 9.46934-15.53172-.14945-4.60607-6.75181-36.34388-6.43764-39.89266.314-3.54817 15.12486-16.358 16.628-16.2994 1.503.05862 4.34372 1.68233 6.40978 2.58047 2.06586.89813 3.99693-2.38127 3.949-3.88071a13.79168 13.79168 0 01-.09723-2.99909c.1831-.971 1.59213-3.80433 1.31573-5.72529a15.51784 15.51784 0 01.34183-6.0153c.48674-1.51678 3.44062-3.00611 3.40615-4.07722a11.53885 11.53885 0 00-3.743-9.63634c-4.30511-3.82787-6.94151-5.77958-13.4479-4.71156-6.506 1.06823-15.31311.60254-17.60665 5.93088C887.10508 1098.7733 873.61838 1119.36748 875.38534 1134.21409zM1110.68578 1103.00885c2.18146 1.54629 8.01842 2.53319 9.84441 4.45806 1.826 1.92467 6.5101 8.16622 10.962 9.49164 4.45167 1.32564 9.03834 4.55757 9.543 6.52538.5045 1.9678.25287 35.24407 1.23708 38.22664.9838 2.98257 12.904 19.45453 23.46633 18.10784 10.56213-1.34627 3.90382-34.623 1.26618-40.2314-2.63785-5.608-6.8156-17.4184-7.70837-24.3112-.893-6.89259-5.85471-15.3286-7.08188-18.74961-1.227-3.4206.00929-16.969-2.51627-19.12054-2.526-2.15091-12.396-10.4837-14.22239-10.84328-1.8262-.35938-3.85181-4.40255-5.81322-3.68565-3.15865 1.15472-.52 4.23988-2.62526 3.88876-2.10508-.3505-10.09377-1.34834-11.51043 2.32678-1.41625 3.67491-.161 5.79836-.161 5.79836a3.93788 3.93788 0 00-4.90724 3.64828c-.54846 4.624 1.33843 6.86617 1.33843 6.86617s-4.04316.13087-4.28178 3.55828c-.23759 3.42741 3.1025 5.79382 2.71319 6.19345C1108.40483 1097.0307 1108.50536 1101.46255 1110.68578 1103.00885z" class="colorf2dad4 svgShape"></path></svg></svg></g></svg>